<?xml version="1.0" encoding="UTF-8"?><svg id="Capa_2" xmlns="http://www.w3.org/2000/svg" viewBox="0 0 264.85 411.74"><g id="Capa_2-2"><path d="M239.2,301.32c-1.31,7.67-2.71,15.18-3.85,22.73-1.62,10.78-6.5,19.79-14.14,27.45-16.6,16.61-33.22,33.19-49.7,49.92-5.06,5.14-11.31,8.01-18.09,8.76-16.55,1.83-33.21,2.75-49.64-1.21-6.76-1.63-12.36-5.19-17.26-10.37-15.1-15.97-30.36-31.79-45.87-47.35-10.15-10.18-13.83-22.81-15.51-36.44-.18-1.49-.51-2.96-.59-4.45-.29-5.63-2.36-8.86-8.24-11.52-10.93-4.93-14.37-15.64-15.14-26.88-.8-11.74,1.39-22.56,11.5-30.4,1.03-.8,1.28-3.26,1.1-4.87-1.99-17.53-4.1-35.05-6.24-52.56-2.36-19.31-5.37-38.55-7.01-57.92-1.61-18.9,.38-37.59,8.16-55.26,.74-1.67,1.49-3.35,2.43-4.91,2.19-3.63,4.5-3.62,6.68-.09,.69,1.12,1.28,2.35,2.18,3.26,5.58,5.68,8.52,6.15,15.51,2.16,15.84-9.04,30.03-19.68,41.84-34.13C93.51,17.41,115.96,7.28,140.85,2.44c16.02-3.11,32.14-2.94,48.26-1.21,2.12,.23,4.07,2,6.1,3.06-1.6,1.62-3,3.56-4.85,4.8-2.98,2-6.26,3.54-9.87,5.52,8.83-.6,16.9-1.55,24.98-1.59,13.85-.08,27,3.56,39.61,9.1,1.65,.72,2.69,2.84,4.02,4.31-1.71,.93-3.34,2.47-5.13,2.7-9.86,1.26-19.72,2.4-29.67,7.86,6.9,.92,12.73,1.42,18.45,2.52,11.62,2.22,21.57,7.68,29.66,16.37,3.84,4.13,3.18,5.39-1.9,7.76-5.05,2.36-9.85,5.39-14.38,8.65-2.66,1.91-2.74,4.31,.41,6.83,11.5,9.2,17.74,20.61,17.82,36.11,.05,10.76,.63,21.25-3.34,31.4-1.26,3.22-2.66,6.75-5.02,9.09-4.57,4.53-5.27,10.06-5.78,15.84-1.9,21.4-3.82,42.79-5.56,64.2-.12,1.43,.74,3.85,1.8,4.33,7.38,3.3,11.2,9.37,13.16,16.66,3.25,12.11,2.06,23.8-4.88,34.51-3.6,5.56-8.77,8.99-15.5,10.06Zm-14.31-56.52h.15c.58-13.14,1.41-26.28,1.66-39.43,.17-8.95,.54-18.09-.95-26.84-3.6-21.17-15.21-35.51-38.74-37.59-18.94-1.68-36.64,3.13-53.89,10.08-3.92,1.58-7.12,1.46-10.92,.03-14.56-5.5-29.49-9.11-45.25-8.95-18.51,.18-35.35,7.92-41.55,25.78-2.84,8.16-3.71,16.44-3.09,25.06,2.64,36.87,5.08,73.76,7.62,110.63,.74,10.77,6.76,18.27,15.7,23.37,8.65,4.93,16.55,1.69,23.45-4.06,12.7-10.58,27.18-13.01,43.1-10.89,5.85,.78,11.97,.78,17.83,.06,16.28-1.98,31.27,.68,45.48,9.28,16.37,9.9,36.57-1.45,37.36-20.61,.77-18.64,1.37-37.28,2.04-55.92Zm6.03-221.18c-20.17-5.82-39.34-6.54-58.37,1.5-2.11,.89-4.75,.56-7.14,.79,.57-2.44,.49-5.36,1.85-7.21,2.32-3.16,5.53-5.69,8.42-8.41,1.02-.96,2.22-1.74,4.32-3.35-2.98-.25-4.77-.67-6.51-.51-12.57,1.15-25.36,1.31-37.63,3.89-21.69,4.57-40.94,14.7-54.81,32.39-13.26,16.91-30.55,27.99-49.09,37.65-1.69,.88-4.56,.67-6.38-.15-3.89-1.75-7.45-4.22-11.24-6.46-8.34,19.82-8.92,40.53-6.73,61.41,1.5,14.36,4.04,28.61,5.84,42.95,3.05,24.27,5.73,48.6,8.87,72.86,2.25,17.33,5.02,34.59,7.51,51.88,.35,2.4,.68,4.41,3.89,2.59-2.49-35.83-5.15-71.53-7.32-107.27-.52-8.55-.46-17.41,1.18-25.76,4.06-20.59,20.47-34.17,40.61-36.17,18.88-1.88,36.75,1.69,54.26,8.1,3.64,1.34,6.73,1.39,10.42-.1,15.86-6.41,32.28-10.71,49.54-9.97,17.43,.74,32.85,6.16,42.24,22.16,6.82,11.62,9.47,24.49,8.92,37.91-1.45,35.62-3.06,71.24-4.57,106.87-.07,1.65,.2,3.31,.32,4.97,.51,.05,1.02,.11,1.53,.16,.38-1.06,1.01-2.1,1.11-3.19,2.39-25.36,4.79-50.72,7.06-76.1,1.94-21.57,3.67-43.15,5.67-64.71,.18-1.96,1.13-4.21,2.47-5.64,4.93-5.25,8.75-11.21,9.64-18.28,.95-7.52,.38-15.22,1-22.8,1.18-14.42-5.9-24.61-16.71-32.59-4.4-3.25-4.81-6.82-2.54-10.68,1.96-3.33,4.88-6.26,7.85-8.8,2.57-2.19,5.82-3.57,9.14-5.53-1.64-1.37-2.84-2.49-4.15-3.46-13.32-9.7-28.39-11.44-44.25-9.88-1.58,.16-4.14-.32-4.69-1.34-.63-1.17-.07-3.8,.95-4.87,2.72-2.85,5.63-5.87,9.08-7.6,5.57-2.8,11.63-4.64,18.48-7.26ZM33.11,312.31l-1.22,1.28c.58,14,4.96,24.49,13.27,32.97,15.49,15.82,30.71,31.92,46.36,47.59,3.4,3.4,7.81,6.45,12.33,7.93,14.2,4.66,28.95,3.21,43.58,2.44,9.27-.49,16.57-4.41,23.08-11.22,15.31-16.01,31.18-31.48,46.88-47.11,9.16-9.12,12-20.6,12.48-33.38-1.86,.56-3.51,1.37-4.44,2.7-11.94,16.95-27.93,20.64-45.4,10.16-7.89-4.74-16.31-7.91-25.49-7.6-15.26,.53-30.47,.92-45.74-.08-4.43-.29-8.98,1.26-13.47,1.97l.22,1.39c1.16,0,2.31,0,3.47,0,21.83,0,43.66,0,65.49,0,6.23,0,7.94,1.6,5.81,7.46-2.11,5.79-4.64,12.08-8.82,16.35-12.17,12.43-27.48,15.05-43.82,10.23-15.96-4.71-25.52-15.36-26.96-32.81-4.19,2.92-7.93,5.66-11.81,8.21-8.85,5.83-18.03,6.37-27.39,1.28-6.68-3.63-11.06-9.42-14.74-15.9-.85-1.51-2.44-2.6-3.68-3.88Zm65.16,15.77c3.41,14.57,18.26,24.08,35.23,22.98,15.64-1.01,28.89-11.03,30.06-22.98H98.27Zm140.9-33.87c8.98-1.73,14.87-11.01,15.72-23.54,.77-11.37-3.81-21.39-11.37-24.06-1.44,15.77-2.87,31.44-4.35,47.61ZM15.26,247.39c-8.2,9.61-9.42,19.4-6.87,29.95,1.81,7.47,5.09,13.94,13.57,17.37-2.24-15.8-4.37-30.84-6.7-47.31Z"/><path d="M101.73,196.59c-.22,7.45-2.53,9.14-8.04,7.88-10.68-2.45-21.21-1.72-31.2,2.81-4.38,1.99-5.35-.82-6.41-3.53-1.01-2.6-2.98-5.67,1.41-7.46,13.18-5.37,26.67-6.76,40.45-2.85,1.74,.49,3.05,2.51,3.78,3.15Z"/><path d="M181.75,190.44c6.5,1.64,14.33,3.61,22.15,5.61,4.7,1.2,3.68,4.38,2.35,7.41-1.24,2.83-2.06,5.86-6.74,3.78-10.32-4.59-21.18-5.53-32.11-2.32-4.01,1.18-5.75-.57-6.4-3.93-.62-3.16-1.71-6.87,3.38-7.7,5.22-.84,10.44-1.71,17.37-2.85Z"/><path d="M116.74,301.24c5.98-.29,12.58,.24,18.78-1.09,11.17-2.41,15.26-9.52,13.14-20.74-2.01-10.62-4.12-21.22-6.09-31.85-.66-3.58-1.02-7.22-.57-11.05,2.15,7.9,4.37,15.78,6.42,23.7,1.59,6.11,2.98,12.28,4.43,18.43,3.04,12.88-3.68,22.82-16.86,24.95-6.91,1.12-13.54,.23-19.25-2.35Z"/><path d="M92.97,227.61c-.04,5.23-4.34,9.52-9.48,9.45-5.11-.07-9.45-4.51-9.4-9.63,.05-5.17,4.38-9.42,9.57-9.38,5.2,.04,9.35,4.29,9.31,9.55Z"/><path d="M178.35,218.06c5.14-.12,9.6,4.09,9.73,9.2,.13,5.12-4.09,9.61-9.2,9.79-5.1,.18-9.58-4.08-9.73-9.26-.15-5.14,4.08-9.6,9.21-9.73Z"/></g></svg>