<?xml version="1.0" encoding="UTF-8"?><svg id="Capa_2" xmlns="http://www.w3.org/2000/svg" viewBox="0 0 31.58 24.1"><g id="Capa_1-2"><g><path d="M16.7,18.01c-.2,.02-.4,.05-.59,.05-.19,0-.38-.03-.57-.05-.03,.24-.07,.49-.11,.73-.22,1.38-.57,2.73-1.18,4-.19,.4-.43,.78-.66,1.17-.12,.2-.37,.25-.56,.12-.18-.12-.24-.37-.11-.56,.76-1.15,1.2-2.43,1.51-3.77,.15-.68,.27-1.36,.34-2.05,0-.04,0-.1-.03-.13-.45-.41-.84-.88-1.18-1.38-.42-.64-1.01-1.04-1.69-1.34-1.02-.46-2.09-.74-3.18-.95-.05-.01-.09,0-.11,.05-.34,.86-.71,1.71-1.02,2.57-.33,.91-.43,1.86-.38,2.83,.06,1,.29,1.97,.52,2.94,.11,.45,.2,.9,.3,1.35,.04,.19-.03,.36-.18,.45-.15,.08-.33,.08-.45-.04-.06-.06-.12-.15-.14-.24-.2-.86-.39-1.71-.58-2.57-.19-.87-.3-1.74-.27-2.63,.03-.99,.24-1.93,.6-2.85,.35-.89,.72-1.77,1.05-2.66,.47-1.27,.84-2.58,1.09-3.92,.34-1.83,.31-3.64-.06-5.46-.22-1.06-.51-2.1-.92-3.11-.09-.21,0-.45,.21-.53,.21-.09,.44,0,.53,.23,.33,.79,.58,1.6,.78,2.42,.35,1.4,.54,2.82,.48,4.27-.02,.5-.08,1-.12,1.5,0,.08,0,.11,.09,.14,1.14,.38,2.31,.65,3.5,.81,.83,.11,1.67,.18,2.51,.18,2.05,0,4.04-.34,5.99-.97,.11-.04,.13-.08,.12-.19-.05-.64-.11-1.27-.12-1.91-.02-.9,.09-1.8,.25-2.69,.22-1.21,.55-2.38,1.01-3.52,.06-.15,.15-.27,.32-.29,.15-.03,.28,.02,.38,.14,.1,.13,.11,.27,.05,.42-.15,.41-.31,.82-.44,1.23-.42,1.32-.69,2.67-.76,4.05-.05,1,.02,1.99,.18,2.98,.29,1.83,.84,3.58,1.53,5.29,.25,.63,.53,1.25,.76,1.88,.51,1.38,.61,2.8,.4,4.25-.13,.93-.38,1.84-.58,2.76-.06,.25-.11,.5-.16,.75-.04,.2-.19,.33-.37,.33-.19,0-.35-.1-.4-.29-.02-.07-.02-.16,0-.24,.18-.83,.38-1.66,.55-2.49,.16-.72,.26-1.45,.27-2.2,0-1.06-.21-2.07-.62-3.05-.27-.64-.52-1.28-.78-1.92-.02-.06-.05-.09-.12-.08-1.13,.23-2.24,.51-3.29,1-.47,.22-.92,.47-1.26,.87-.23,.27-.42,.58-.65,.85-.27,.32-.56,.62-.84,.94-.03,.03-.05,.08-.05,.12,.19,1.74,.57,3.43,1.36,5.01,.14,.28,.31,.53,.46,.8,.05,.09,.09,.19,.09,.29,0,.17-.12,.31-.28,.36-.17,.05-.35-.01-.44-.17-.22-.38-.46-.75-.65-1.15-.6-1.23-.94-2.55-1.17-3.89-.05-.29-.09-.58-.13-.86Zm-7.82-4.95s.07,.02,.1,.03c.22,.05,.45,.09,.67,.15,.92,.22,1.83,.49,2.69,.9,.74,.35,1.38,.81,1.84,1.5,.29,.44,.62,.84,1,1.21,.27,.26,.57,.44,.96,.43,.37,0,.65-.18,.91-.42,.36-.34,.66-.74,.96-1.13,.21-.27,.41-.55,.65-.78,.47-.45,1.05-.74,1.64-.98,.95-.4,1.94-.65,2.94-.86,.04,0,.07-.02,.11-.03-.42-1.21-.77-2.43-1-3.69-4.17,1.35-8.32,1.35-12.49,0-.23,1.27-.58,2.49-1,3.69Z"/><path d="M3.24,11.01c-.11-.1-.22-.21-.32-.31-.18-.18-.19-.43-.02-.59,.16-.16,.41-.15,.59,.03,.34,.34,.67,.67,1.01,1.01,.19,.19,.19,.42,0,.61-.34,.34-.67,.67-1.01,1.01-.18,.17-.43,.18-.59,.02-.16-.16-.15-.41,.02-.59,.11-.11,.22-.21,.33-.32v-.03s-.09,0-.13,0c-.9,0-1.8,0-2.7,0-.28,0-.46-.22-.41-.48,.04-.19,.2-.31,.42-.31,.44,0,.89,0,1.33,0,.45,0,.9,0,1.35,0h.11v-.03Z"/><path d="M28.34,11.87c.12,.11,.24,.22,.35,.34,.19,.21,.13,.52-.11,.64-.15,.07-.33,.04-.45-.08-.35-.35-.71-.7-1.05-1.05-.16-.17-.16-.4,.01-.57,.35-.35,.69-.69,1.04-1.04,.16-.16,.41-.17,.57,0,.15,.15,.15,.4,0,.56-.06,.06-.12,.12-.18,.18-.06,.05-.12,.11-.18,.16l.02,.03h.11c.89,0,1.78,0,2.67,0,.06,0,.12,0,.17,.02,.19,.05,.3,.23,.28,.42-.02,.19-.17,.34-.36,.35-.04,0-.08,0-.11,0-.87,0-1.75,0-2.62,0-.04,0-.08,0-.12,0l-.02,.04Z"/><path d="M15.72,6.53c0-.13,0-.26,0-.4,0-.22,.18-.39,.39-.39,.22,0,.39,.17,.4,.39,0,.27,0,.53,0,.8,0,.22-.18,.38-.4,.38-.22,0-.39-.17-.39-.39,0-.13,0-.26,0-.4Z"/></g></g></svg>