<?xml version="1.0" encoding="UTF-8"?><svg id="Capa_2" xmlns="http://www.w3.org/2000/svg" viewBox="0 0 25.55 23.42"><g id="Capa_1-2"><g><path d="M13.34,17.5c-.2,.02-.39,.05-.57,.05-.18,0-.37-.03-.56-.05-.03,.23-.07,.47-.1,.71-.22,1.34-.56,2.65-1.15,3.89-.19,.39-.42,.76-.64,1.13-.12,.19-.36,.24-.54,.12-.18-.12-.23-.35-.1-.54,.74-1.12,1.17-2.36,1.46-3.66,.15-.66,.26-1.32,.33-2,0-.04,0-.1-.03-.13-.44-.4-.82-.85-1.15-1.35-.41-.62-.98-1.01-1.64-1.3-.99-.44-2.03-.72-3.09-.93-.05-.01-.09,0-.11,.05-.33,.83-.69,1.66-.99,2.5-.32,.88-.42,1.81-.37,2.75,.06,.97,.28,1.91,.5,2.86,.1,.44,.2,.88,.29,1.31,.04,.19-.03,.35-.18,.44-.14,.08-.33,.07-.44-.04-.06-.06-.11-.15-.13-.23-.19-.83-.38-1.66-.56-2.5-.18-.84-.29-1.69-.26-2.56,.03-.96,.23-1.88,.59-2.77,.34-.86,.7-1.72,1.02-2.59,.46-1.24,.82-2.51,1.06-3.81,.33-1.77,.3-3.54-.06-5.31-.21-1.03-.5-2.04-.9-3.02-.09-.21,0-.44,.2-.52,.2-.08,.42,0,.51,.23,.32,.76,.56,1.55,.76,2.36,.34,1.36,.52,2.74,.47,4.15-.02,.49-.07,.97-.12,1.46,0,.08,0,.11,.09,.14,1.11,.37,2.25,.63,3.41,.79,.81,.11,1.62,.17,2.44,.17,1.99,0,3.93-.33,5.82-.95,.11-.04,.12-.08,.12-.19-.05-.62-.11-1.24-.12-1.86-.02-.88,.08-1.75,.24-2.62,.21-1.17,.53-2.31,.98-3.42,.06-.15,.15-.26,.31-.29,.15-.03,.28,.02,.37,.13,.1,.12,.11,.26,.05,.41-.14,.4-.3,.8-.43,1.2-.4,1.28-.67,2.59-.74,3.94-.05,.97,.02,1.93,.17,2.89,.28,1.78,.82,3.48,1.48,5.14,.24,.61,.51,1.21,.74,1.83,.5,1.34,.59,2.72,.39,4.13-.13,.91-.37,1.79-.57,2.68-.05,.24-.1,.49-.16,.73-.04,.19-.18,.32-.36,.32-.19,0-.34-.1-.39-.28-.02-.07-.02-.16,0-.23,.18-.81,.36-1.61,.54-2.42,.15-.7,.26-1.41,.26-2.14,0-1.03-.21-2.01-.6-2.96-.26-.62-.51-1.24-.76-1.86-.02-.06-.04-.09-.12-.07-1.1,.22-2.18,.5-3.19,.97-.45,.21-.89,.45-1.22,.85-.22,.27-.41,.56-.63,.83-.26,.31-.54,.61-.82,.91-.03,.03-.05,.08-.05,.12,.18,1.69,.55,3.33,1.32,4.86,.13,.27,.3,.52,.45,.78,.05,.09,.08,.19,.09,.28,0,.17-.12,.3-.27,.35-.17,.05-.34,0-.43-.17-.22-.37-.45-.73-.63-1.12-.58-1.2-.92-2.47-1.14-3.78-.05-.28-.08-.56-.13-.83Zm-7.6-4.81s.07,.02,.1,.03c.22,.05,.44,.09,.65,.14,.9,.21,1.78,.48,2.61,.87,.72,.34,1.34,.79,1.79,1.46,.28,.42,.6,.82,.97,1.17,.26,.25,.55,.43,.93,.42,.36,0,.64-.18,.89-.41,.35-.33,.64-.72,.93-1.1,.2-.26,.4-.53,.63-.76,.46-.44,1.02-.71,1.6-.96,.92-.39,1.88-.64,2.86-.83,.03,0,.07-.02,.11-.03-.41-1.18-.75-2.36-.97-3.59-4.05,1.31-8.09,1.31-12.13,0-.22,1.23-.56,2.42-.97,3.59Z"/><path d="M3.15,3.95c-.1-.1-.21-.2-.31-.3-.17-.17-.18-.42-.02-.58,.16-.16,.4-.14,.57,.03,.33,.33,.66,.65,.98,.98,.18,.18,.18,.41,0,.59-.33,.33-.65,.65-.98,.98-.17,.17-.41,.18-.57,.02-.16-.16-.15-.4,.02-.57,.1-.11,.21-.21,.32-.31v-.03s-.09,0-.12,0c-.87,0-1.75,0-2.62,0-.27,0-.45-.22-.4-.47,.04-.18,.2-.31,.41-.31,.43,0,.86,0,1.3,0,.44,0,.88,0,1.32,0h.11v-.03Z"/><path d="M22.4,4.79c.11,.11,.23,.21,.34,.33,.19,.2,.13,.51-.11,.62-.15,.07-.32,.04-.44-.08-.34-.34-.69-.68-1.03-1.02-.16-.16-.15-.39,0-.55,.34-.34,.67-.67,1.01-1.01,.16-.16,.4-.16,.55,0,.15,.15,.15,.39,0,.55-.05,.06-.11,.12-.17,.17-.06,.05-.12,.1-.17,.15l.02,.03h.1c.86,0,1.73,0,2.59,0,.06,0,.12,0,.17,.02,.18,.05,.29,.22,.27,.41-.02,.19-.17,.33-.35,.34-.04,0-.07,0-.11,0-.85,0-1.7,0-2.55,0-.04,0-.08,0-.12,0v.04Z"/><path d="M12.39,6.35c0-.13,0-.26,0-.38,0-.21,.17-.38,.38-.38,.21,0,.38,.16,.38,.37,0,.26,0,.52,0,.78,0,.21-.17,.37-.39,.37-.21,0-.38-.16-.38-.38,0-.13,0-.26,0-.38Z"/></g></g></svg>