<?xml version="1.0" encoding="UTF-8"?><svg id="Capa_2" xmlns="http://www.w3.org/2000/svg" viewBox="0 0 32.8 24.41"><g id="Capa_1-2"><g><path d="M.47,20.74l-.47-.89c.36-.19,.69-.37,1.03-.55,2.27-1.19,4.54-2.38,6.81-3.58,.19-.1,.36-.24,.51-.39,.48-.48,.95-.97,1.41-1.48,.09-.1,.14-.27,.15-.41,.07-1.23-.11-2.44-.18-3.67-.03-.58-.23-1.03-.63-1.46-.88-.94-1.32-2.11-1.56-3.37-.28-1.53-.6-3.05-.91-4.57-.01-.06-.01-.12-.02-.2l.99-.18c.12,.63,.23,1.23,.35,1.83,.26,1.24,.52,2.49,.78,3.73,.21,.97,.78,1.74,1.43,2.45,.65,.72,1.37,1.35,2.16,1.92,.04,.03,.09,.06,.12,.1,.63,.84,1.52,1.22,2.5,1.41,1.25,.24,2.5,.21,3.72-.22,.66-.23,1.25-.57,1.68-1.15,.05-.07,.13-.11,.19-.16,.66-.58,1.34-1.14,1.97-1.75,.97-.93,1.53-2.07,1.77-3.4,.27-1.53,.6-3.05,.91-4.57,.01-.05,.02-.1,.04-.18l1,.18c-.09,.46-.16,.89-.25,1.32-.29,1.41-.59,2.82-.88,4.23-.21,1.04-.75,1.91-1.45,2.67-.35,.38-.52,.77-.54,1.28-.05,1.21-.13,2.41-.21,3.62-.02,.26,.06,.48,.24,.67,.54,.54,1.06,1.11,1.63,1.61,.3,.26,.7,.4,1.06,.59,2.27,1.19,4.54,2.38,6.81,3.58,.05,.03,.1,.06,.17,.1l-.47,.89c-.47-.25-.93-.48-1.38-.72-2.2-1.16-4.41-2.31-6.6-3.49-.38-.2-.67-.55-1.01-.83-.07-.06-.13-.12-.23-.21,.07,.59,.24,1.08,.62,1.48,.54,.57,1.1,1.11,1.65,1.66,.06,.06,.12,.11,.19,.18l-.67,.76c-.1-.08-.19-.16-.28-.24-.47-.46-.95-.91-1.41-1.38-.7-.7-1.03-1.57-1.17-2.54-.24-1.63-.23-3.25-.06-4.88,.02-.15,.02-.3,.04-.52-.36,.3-.68,.55-.99,.81-.24,.2-.45,.43-.7,.63-.12,.1-.19,.2-.21,.35-.18,1.34-.37,2.68-.55,4.03,0,.07-.02,.13-.04,.23l-1-.14,.52-3.76c-1.77,.57-3.52,.57-5.31,0l.52,3.77-1.01,.14c-.09-.64-.17-1.24-.26-1.85-.11-.81-.22-1.62-.34-2.43-.02-.11-.1-.23-.19-.31-.48-.43-.96-.85-1.45-1.27-.06-.05-.13-.1-.25-.19,.03,.4,.06,.75,.09,1.1,.14,1.53,.09,3.04-.16,4.55-.14,.82-.45,1.56-1.03,2.16-.57,.59-1.15,1.16-1.75,1.75l-.7-.79c.3-.28,.6-.53,.88-.8,.35-.35,.68-.71,1-1.07,.35-.4,.51-.88,.59-1.44-.08,.07-.13,.11-.18,.16-.51,.52-1.1,.93-1.75,1.27-2.37,1.22-4.72,2.47-7.08,3.71-.06,.03-.12,.06-.21,.1Z"/><path d="M20.98,17.7l.94,.36c-.03,.09-.06,.17-.08,.24-.52,1.37-1.04,2.73-1.56,4.1-.02,.06-.05,.13-.07,.19-.13,.46,.18,.84,.66,.79,1.21-.11,2.42-.23,3.63-.35,2.14-.21,4.28-.42,6.42-.63,.18-.02,.36-.03,.56-.05l.1,1.01c-.5,.05-.97,.1-1.45,.15-3.05,.3-6.11,.59-9.16,.89-1.21,.12-2.12-1-1.71-2.16,.35-1.01,.76-2,1.14-3.01,.19-.5,.38-1,.58-1.53Z"/><path d="M1.22,23.35l.1-1c.45,.04,.87,.08,1.3,.12,3.09,.3,6.19,.59,9.28,.92,.53,.06,.85-.43,.67-.89-.52-1.32-1.01-2.64-1.52-3.97-.06-.15-.11-.3-.17-.47l.95-.36c.12,.3,.23,.59,.33,.87,.45,1.19,.92,2.39,1.36,3.58,.4,1.08-.26,2.18-1.37,2.25-.35,.02-.72-.04-1.07-.08-3.21-.31-6.43-.63-9.64-.95-.06,0-.12-.02-.22-.03Z"/><path d="M16.4,22.78c.64-1.41,.93-2.92,1.22-4.45l1,.18c-.08,.44-.16,.86-.24,1.28-.21,1.03-.44,2.05-.86,3.02-.12,.27-.26,.54-.44,.78-.4,.54-.95,.54-1.36,.01-.13-.17-.25-.37-.35-.57-.44-.89-1.11-3.48-1.18-4.52l.98-.18c.3,1.52,.57,3.03,1.22,4.45Z"/></g></g></svg>