<?xml version="1.0" encoding="UTF-8"?><svg id="Capa_2" xmlns="http://www.w3.org/2000/svg" viewBox="0 0 311.3 394.13"><g id="Capa_2-2"><g><path d="M11.92,158c-1.31,.79-2.36,1.62-3.56,2.1-2.78,1.1-5.19,.16-4.65-2.9,1.9-10.73-1.56-20.8-3.21-31.1-3.52-22.07,11.61-42.43,33.97-45.64,2.45-.35,4.9-.64,6.32-.82,2.48-9.06,3.87-17.72,7.2-25.56,8.76-20.63,25.64-32.2,46.4-38.67,11.99-3.74,24.32-5.02,36.93-5.37,11.9-.32,23.77-2.26,35.59-3.97,2.52-.36,4.7-2.85,7.1-4.26,1.29-.76,3.07-2.14,3.97-1.74,1.16,.51,2.25,2.48,2.35,3.89,.3,4.43,.11,8.89,.11,13.52,6.53-.78,12.73-1.79,18.96-2.2,18.95-1.25,35.7,4.12,50.53,16.24,6.13,5,13.14,9.07,20.18,12.76,6.82,3.58,9.08,2.68,14.63-2.49,1.04-.97,3.16-1.93,4.13-1.49,1.01,.46,1.73,2.63,1.74,4.06,.09,7.58-3.43,14.36-11.52,22.72,20.28,10.96,24.34,30.51,26.26,50.79,1.08,11.42,.69,22.97,1.04,34.46,.09,2.78,0,5.67,3.82,6.68,.7,.19,1.46,3.54,.85,4.74-2.18,4.26-7.32,6.14-11.99,4.93-1.24-.32-2.44-.79-4.19-1.37-.47,6.77-.78,13.03-1.35,19.28-1.2,13.27-2.61,26.52-3.71,39.8-.16,1.9,.49,4.16,1.49,5.82,6.51,10.78,5.74,22,1.49,33.03-1.97,5.1-6.8,8.46-12.33,9.26-4.19,.6-5.12,2.81-5.99,6.34-8.85,36.28-27.05,66.88-56.64,89.98-22.38,17.48-47.78,26.34-76.51,22.35-26.32-3.65-47.87-16.74-66.07-35.55-21.1-21.8-35.08-47.58-41.82-77.19-.79-3.48-2.01-5.2-5.83-5.91-8.67-1.62-14.99-9.32-15.16-18.11-.18-9.06-1.69-18.5,5.61-26.04,.53-.54,.39-1.89,.3-2.84-2.11-23.04-4.26-46.08-6.45-69.55Zm49.73-21.79c.64,3.35,.97,5.12,1.32,6.88,3.77,18.83,7.03,37.7,3.51,56.97-2.77,15.15-8.61,29.75-8.14,45.49,0,.16,.01,.38-.08,.49-1.23,1.37-2.29,3.42-3.8,3.84-.96,.27-3.32-1.64-3.8-3.01-2.76-7.75-8.78-11.34-16.06-13.68-8.95-2.88-15.73,1.8-16.19,11.36-.13,2.66-.04,5.33-.04,8,.04,12.59,6.89,18.03,19.26,15.55,1.25-.25,2.78,.9,4.18,1.4-.47,1.26-.98,2.51-1.39,3.79-.5,1.52-1.59,3.22-1.27,4.57,9.1,38.59,28.58,70.54,61.67,93.04,24.57,16.71,51.79,22.8,80.31,12.49,49.72-17.97,75.06-56.98,87.9-105.95,.28-1.06-.29-2.41-.67-3.56-.54-1.65-1.27-3.23-1.92-4.84,1.79-.18,3.69-.86,5.33-.46,8.49,2.1,16.57-2.94,17.54-11.62,.51-4.61,.51-9.36,0-13.97-.95-8.57-7.38-12.39-15.57-9.93-7.74,2.33-13.86,6.26-16.73,14.32-.43,1.22-2.59,2.81-3.59,2.59-1.39-.31-3.15-2-3.48-3.39-.84-3.54-1.25-7.23-1.33-10.88-.35-15.65-.51-31.31-.76-46.97-.03-1.76-.15-3.52-.24-5.53-8.65,0-16.79,.12-24.92-.03-13.67-.25-25-4.63-33.54-16.36-7.81-10.73-19.92-15.27-32.58-18.87,0,3.94,.15,7.09-.04,10.21-.2,3.12-2.41,4.55-4.72,2.58-6.45-5.5-14.16-5.01-21.75-5.54-9.95-.7-19.97-.98-29.81-2.45-13.63-2.03-26.12-7.45-38.6-16.53Zm192.67,101.44c9.89-8.13,15.74-11.08,25.38-12.14,3.5-.39,4.48-1.9,4.71-4.97,1.38-18.1,2.92-36.19,4.17-54.3,.19-2.83-.98-5.74-1.26-8.64-.12-1.3,.42-2.65,.66-3.98,1.47,.3,3.21,.21,4.33,1,1.28,.91,1.82,2.81,3.03,3.9,1.99,1.8,4.25,3.29,6.17,4.74-.52-7.96-1.32-15.01-1.37-22.06-.1-15.86-.25-31.71-5.73-46.86-4.1-11.34-10.9-20.14-23.38-23.23-1.82-.45-3.39-1.91-5.08-2.9,1.45-1.3,2.7-3.04,4.39-3.84,5.54-2.61,10.21-5.87,12.2-12.78-8.31,1.99-15.05-.87-21.33-4.82-6.05-3.81-11.53-8.53-17.68-12.13-7.11-4.17-14.33-8.65-22.1-11.07-15.99-4.97-31.94-2.32-47.61,2.75-1.67,.54-3.82-.41-5.75-.67,.78-1.61,1.23-3.53,2.4-4.77,2.84-3.01,4.95-6.08,3.75-10.78-14.47,5.92-29.44,6.3-44.46,6.13-14.53-.17-28.57,2.41-41.89,8.05-22.61,9.58-36.61,26.12-39.27,51.08-1.06,9.96-.79,9.94-10.65,10.82-22.38,1.99-32.29,19.77-31.78,34.07,.32,8.96,2.84,17.85,4.37,26.77,1.73-2.42,2.28-5.05,3.48-7.32,.61-1.14,2.41-1.65,3.68-2.45,.69,1.3,1.98,2.61,1.95,3.88-.07,2.95-1.25,5.9-1.16,8.83,.3,9.65,.83,19.31,1.53,28.94,1.1,15.07,2.42,30.13,3.6,44.58,9.71,2.95,19.45,5.9,29.2,8.86,.49-2.96,.61-6.49,1.69-9.71,6.16-18.43,9.48-37.19,6.1-56.54-2.52-14.43-2.67-29.5-10.59-42.65-.61-1.01,.32-2.94,.53-4.44,1.55,.45,3.77,.4,4.55,1.44,12.37,16.38,29.68,23.96,49.17,26.68,15.05,2.1,30.33,2.57,46.13,3.81-.93-1.72-1.93-3.34-2.69-5.05-.62-1.39-.96-2.91-1.42-4.37,1.46-.46,3.05-1.56,4.35-1.28,17.73,3.83,34.04,10.09,45.72,25.23,3,3.88,7.55,7.46,12.13,9.05,12.67,4.38,25.89,2.3,39.4,1.98,0-7.67-.05-14.81,.03-21.94,.03-2.69-.88-6.68,3.14-6.67,4.05,.01,3.08,4.08,3.1,6.7,.12,23.83,.13,47.66,.17,71.49,0,3.44,0,6.87,0,11.54Z"/><path d="M187.31,322.5c1.15,18.58-10.49,31.46-24,35.54-20.48,6.18-41.64-8.97-42.56-30.6-.14-3.32,.11-6.66-.08-9.98-.23-4.01,1.65-5.16,5.4-5.13,17.97,.11,35.94,.04,53.91,.04q7.31,0,7.32,7.14c0,1,0,2,0,3Zm-5.49,3.62l-1.36-1.05c-17.59,5.94-35.23,5.73-54.37,.23,1.55,5.65,2.86,10.38,3.86,14.03,8.02,0,14.69,0,21.36,0,.97,0,2.03,.41,2.9,.15,7.6-2.25,15.03-1.82,23.13,1.89,1.58-5.4,3.02-10.33,4.47-15.26Zm-45.54,18.12l-.06,1.78c9.77,9.7,27.29,9.69,35.73-.97-5.38,0-10.01,0-14.64,0-2.67,0-5.34,.16-8,.04-4.35-.19-8.69-.56-13.03-.85Zm39.95-25.48h-46.12c15.38,5.92,30.77,6.01,46.12,0Z"/><path d="M134.67,264.59c0-7.32,.26-14.66-.06-21.97-.61-13.88-7.58-23.7-20.53-28.48-12.57-4.64-24.5-3.74-34.47,6.7-1.09,1.14-3.53,.97-5.34,1.41,.36-1.91,.1-4.31,1.17-5.65,8.23-10.25,25.31-14.11,39.45-8.86,15.46,5.74,24.84,16.71,25.64,33.45,.72,15.11,.32,30.28,.43,45.43,.05,6.8,2.33,9.34,9.12,9.75,2.98,.18,6,.11,8.97-.19,4.54-.46,7.66-2.58,8.67-7.51,.28-1.35,2.39-2.33,3.66-3.48,.7,1.63,2.14,3.35,1.96,4.88-.62,5.31-3.22,10.11-8.74,10.85-6.77,.9-13.89,1.22-20.59,.13-6.41-1.04-9.18-5.9-9.25-12.47-.09-7.99-.02-15.98-.02-23.97h-.06Z"/><path d="M206.75,210.57c-5.95,1.88-11.86,3.9-17.88,5.54-1.53,.42-3.38-.38-5.09-.61,.66-1.51,.91-3.74,2.06-4.41,12.46-7.22,33.36-9.38,46.29,5.15,1.22,1.38,2.17,4.79,1.38,5.82-2.08,2.72-3.92,.22-5.55-1.46-6.18-6.38-12.22-8.95-21.22-10.04Z"/><path d="M91.49,233.08c1.83-1.44,3.5-3.74,5.53-4.14,3.11-.61,5.34,1.49,5.45,4.87,.11,3.38-1.93,5.63-5.11,5.2-2.06-.28-3.88-2.41-5.8-3.71-.02-.74-.04-1.48-.06-2.23Z"/><path d="M204.65,232.97c1.99-1.42,4.03-3.97,5.97-3.91,1.72,.06,4.28,2.81,4.78,4.79,.8,3.22-1.69,5.59-4.87,5.17-2.07-.27-3.88-2.43-5.81-3.74-.02-.77-.04-1.54-.06-2.32Z"/></g></g></svg>