<?xml version="1.0" encoding="UTF-8"?><svg id="Capa_2" xmlns="http://www.w3.org/2000/svg" viewBox="0 0 110.23 26.84"><defs><style>.cls-1{fill:#eb2286;}.cls-2,.cls-3{fill:#2eb1bb;}.cls-3{font-family:Quicksand-Bold, Quicksand;font-size:5px;font-variation-settings:'wght' 700;letter-spacing:.08em;}.cls-4{fill:#fefefe;}</style></defs><g id="Capa_1-2"><g><g><path class="cls-1" d="M105.88,16.93c-.72,0-1.45,0-2.17,0-.5,0-.76-.22-.75-.62,0-.4,.27-.61,.77-.61,1.39,0,2.77,0,4.16,0,.73,0,1.19-.58,1.03-1.25-.11-.44-.49-.74-1.02-.74-1-.01-2,0-3.01,0-.97,0-1.69-.57-1.95-1.5-.24-.87,.13-1.78,.92-2.26,.3-.18,.62-.27,.96-.27,1.48,0,2.96,0,4.44,0,.41,0,.67,.25,.67,.6,0,.34-.28,.59-.68,.59-1.41,0-2.82,0-4.23,0-.45,0-.75,.19-.89,.55-.22,.56,.2,1.12,.85,1.13,.99,0,1.98,0,2.97,0,1.3,0,2.25,.91,2.27,2.15,.02,1.26-.92,2.22-2.22,2.25-.71,.01-1.42,0-2.13,0h0Z"/><path class="cls-1" d="M99.73,13.57c-.76,0-1.52,0-2.27,0-.39,0-.61-.16-.62-.45,0-.31,.22-.49,.63-.49,1.1,0,2.19,0,3.29,0,.38,0,.39-.02,.29-.4-.27-.96-.92-1.46-1.88-1.63-1.41-.25-2.8,.48-3.26,1.7-.69,1.87,.9,3.77,2.92,3.5,.86-.12,1.66-.35,2.29-1,.22-.22,.52-.21,.72,0,.22,.22,.24,.48,.06,.73-.36,.48-.84,.81-1.39,1.02-1.63,.63-3.2,.61-4.6-.55-1.19-.99-1.58-2.3-1.17-3.77,.41-1.47,1.47-2.34,2.95-2.68,.8-.18,1.6-.11,2.38,.12,1.42,.4,2.25,1.45,2.34,2.92q.06,1-.92,1h-1.75Z"/><path class="cls-1" d="M84.56,13.57c-.76,0-1.52,0-2.27,0-.41,0-.64-.17-.64-.47,0-.31,.23-.47,.65-.47,1.08,0,2.17,0,3.25,0,.4,0,.41-.02,.3-.42-.26-.9-.85-1.42-1.76-1.59-.95-.17-1.84-.05-2.59,.6-.9,.77-1.18,1.94-.72,3,.46,1.07,1.57,1.71,2.78,1.57,.88-.1,1.71-.33,2.36-1,.22-.22,.51-.21,.72-.02,.22,.2,.25,.5,.06,.75-.49,.63-1.17,.99-1.92,1.2-1.39,.38-2.73,.29-3.92-.63-1.17-.91-1.66-2.12-1.39-3.58,.26-1.43,1.17-2.37,2.51-2.85,1.15-.42,2.33-.31,3.44,.17,1.17,.51,1.7,1.48,1.79,2.71,.08,1.02,.07,1.02-.94,1.02h-1.71Z"/><path class="cls-1" d="M65.88,13.07c0,1.01,0,2.03,0,3.04,0,.5-.19,.76-.56,.77-.39,0-.58-.25-.58-.78,0-1.68,0-3.36,0-5.04,0-.3-.06-.42-.38-.4-.63,.04-1.26-.06-1.88,.09-1.49,.35-2.33,1.83-1.88,3.29,.43,1.38,2.03,2.14,3.39,1.59,.34-.14,.35-.03,.34,.25-.01,.87,0,.87-.85,1.02-1.86,.33-3.91-1.13-4.18-2.98-.32-2.14,1.03-4.02,3.06-4.26,1.09-.13,2.19-.02,3.28-.06,.24,0,.22,.13,.22,.29,0,1.06,0,2.12,0,3.18Z"/><path class="cls-1" d="M43.03,13.07c0-1.04,0-2.07,0-3.11,0-.25,.08-.31,.32-.31,.39,0,.7,.11,.84,.49,.08,.23,.15,.19,.3,.08,.81-.6,1.71-.82,2.7-.57,1.29,.32,2.29,1.54,2.32,2.87,.03,1.26,.01,2.52,0,3.78,0,.4-.24,.64-.58,.64-.34,0-.58-.25-.59-.65,0-1.15,0-2.31,0-3.46,0-.36-.05-.69-.21-1.02-.43-.89-1.32-1.31-2.33-1.1-.85,.18-1.53,1.01-1.54,1.93-.01,1.12,0,2.24,0,3.36,0,.09,0,.19,0,.28-.02,.41-.27,.66-.62,.66-.35,0-.6-.26-.6-.67,0-1.06,0-2.12,0-3.18Z"/><path class="cls-1" d="M70.3,13.05c0-1.01,.01-2.03,0-3.04,0-.31,.1-.37,.38-.36,.36,.01,.66,.13,.78,.48,.09,.27,.16,.2,.32,.08,.8-.59,1.69-.81,2.67-.57,1.3,.32,2.31,1.55,2.34,2.89,.03,1.25,.01,2.49,.01,3.74,0,.4-.23,.65-.57,.66-.36,.01-.61-.25-.61-.66,0-1.17,0-2.33,0-3.5,0-1.4-1.07-2.3-2.45-2.08-.9,.14-1.61,.95-1.63,1.91-.03,1.2,0,2.4-.01,3.6,0,.42-.19,.67-.51,.72-.42,.06-.71-.22-.71-.7,0-1.06,0-2.12,0-3.18Z"/><path class="cls-1" d="M55.93,16.93c-1.78-.02-3.27-1.18-3.65-2.96-.49-2.35,1.26-4.5,3.67-4.52,.98,0,1.86,.24,2.61,.9,.23,.21,.32,.46,.19,.75-.17,.39-.56,.48-.92,.18-.58-.48-1.21-.76-1.98-.73-1.27,.05-2.35,1.11-2.48,2.46-.11,1.22,.82,2.5,2.03,2.73,1.07,.21,1.98-.09,2.68-.95,.25-.31,.52-.37,.78-.19,.26,.18,.29,.48,.08,.8-.68,1.01-1.62,1.55-3.01,1.52Z"/><path class="cls-1" d="M35.56,16.93c-1.73-.01-3.23-1.12-3.63-2.81-.4-1.65,.29-3.31,1.72-4.15,1.39-.82,3.33-.67,4.48,.35,.21,.19,.31,.4,.27,.68-.07,.41-.51,.6-.86,.37-.18-.12-.35-.28-.53-.4-.98-.62-2.16-.55-3.03,.17-.91,.75-1.23,1.92-.83,2.99,.39,1.04,1.44,1.74,2.57,1.68,.78-.04,1.44-.36,1.94-.97,.3-.36,.55-.43,.83-.22,.26,.2,.27,.51,.02,.87-.68,.96-1.6,1.47-2.94,1.45Z"/><path class="cls-1" d="M90.97,15.28l1.64-4.5c.08-.23,.16-.46,.25-.69,.15-.37,.42-.52,.73-.4,.31,.12,.42,.41,.28,.78-.69,1.81-1.38,3.63-2.08,5.44-.07,.17-.13,.35-.2,.52-.11,.29-.3,.47-.62,.48-.34,0-.54-.18-.65-.48-.49-1.29-.99-2.58-1.48-3.88-.26-.68-.52-1.37-.78-2.05-.15-.41-.05-.69,.28-.81,.32-.12,.6,.04,.74,.43,.58,1.59,1.15,3.19,1.73,4.79,.04,.11,.09,.21,.15,.36Z"/><path class="cls-1" d="M39.08,12.35c0-1.29,0-2.59,0-3.88,0-.48,.21-.72,.61-.72,.38,0,.58,.25,.58,.71,0,2.59,0,5.17,0,7.76,0,.28-.08,.51-.33,.64-.2,.11-.41,.09-.6-.03-.22-.14-.27-.36-.27-.61,0-1.29,0-2.59,0-3.88Z"/><path class="cls-1" d="M77.52,13.26c0-1,0-2,0-3,0-.42,.22-.68,.57-.71,.37-.03,.64,.26,.64,.71,0,.82,0,1.63,0,2.45,0,1.18,0,2.35,0,3.53,0,.45-.26,.72-.64,.7-.35-.02-.57-.28-.57-.7,0-.99,0-1.98,0-2.97Z"/><path class="cls-1" d="M50.24,13.22c0-.99,0-1.98,0-2.97,0-.46,.29-.75,.67-.7,.31,.04,.53,.28,.54,.63,0,2.04,0,4.07,0,6.11,0,.38-.26,.63-.61,.63-.35,0-.6-.25-.6-.67,0-1.01,0-2.03,0-3.04Z"/><path class="cls-1" d="M42.24,13.23c0,1,0,2,0,3,0,.45-.22,.7-.6,.7-.37,0-.59-.26-.59-.71,0-1.99,0-3.98,0-5.97,0-.43,.24-.71,.6-.7,.36,0,.59,.28,.59,.72,0,.99,0,1.98,0,2.97Z"/><path class="cls-1" d="M43.02,7.29c0,.11-.03,.21-.09,.3-.23,.36-.45,.73-.69,1.09-.15,.23-.35,.35-.62,.21-.26-.14-.29-.37-.18-.63,.19-.41,.37-.82,.58-1.23,.13-.25,.35-.34,.62-.26,.26,.07,.37,.26,.37,.52Z"/><path class="cls-1" d="M51.46,8.37c-.01,.32-.3,.59-.62,.57-.31-.02-.55-.28-.55-.6,0-.34,.27-.59,.61-.57,.31,.02,.57,.3,.56,.6Z"/><path class="cls-1" d="M78.15,7.78c.31,0,.58,.27,.58,.58,0,.32-.28,.6-.6,.59-.33,0-.58-.27-.56-.62,.01-.32,.26-.56,.59-.56Z"/></g><g><path class="cls-1" d="M12.75,9.31c.82,.21,1.51,.63,2.11,1.22,.41,.48,.7,1.03,.95,1.61,.03,.35,.14,.69,.15,1.05,.01,.47-.05,.94-.15,1.4-.22,.6-.53,1.14-.94,1.63-.6,.59-1.29,1.01-2.11,1.22-.62,.13-1.24,.1-1.86,.03h0v-.02h-.02c-.82-.21-1.52-.63-2.11-1.23-.42-.48-.71-1.03-.95-1.62-.2-.82-.21-1.63,0-2.45,.22-.6,.53-1.14,.94-1.63,.6-.59,1.3-1.01,2.12-1.22h.02s0-.03,0-.04h0c.62-.04,1.24-.09,1.86,.04Zm-2.38,4.03c-.01,.83,.61,1.48,1.42,1.48,.8,0,1.46-.64,1.47-1.45,0-.79-.65-1.45-1.43-1.46-.79-.01-1.44,.62-1.45,1.42Z"/><path class="cls-2" d="M14.86,16.22c.41-.49,.72-1.04,.94-1.63,.78,.45,1.56,.91,2.34,1.37,.15,.09,.29,.08,.45,.03,1.18-.32,2.37-.63,3.55-.95,.51-.14,.89,.05,1,.48,.11,.42-.13,.75-.62,.89-1.16,.31-2.33,.63-3.49,.93-.22,.06-.28,.14-.22,.36,.32,1.17,.63,2.35,.93,3.52,.12,.47-.06,.85-.45,.96-.42,.12-.77-.11-.91-.6-.33-1.22-.66-2.45-.98-3.67-.05-.19-.14-.31-.31-.4-.75-.43-1.49-.86-2.23-1.29Z"/><path class="cls-2" d="M10.89,17.47c.62,.07,1.24,.1,1.86-.03,0,.87,0,1.74,0,2.62,0,.19,.05,.33,.19,.47,.9,.89,1.78,1.78,2.68,2.67,.21,.21,.31,.45,.22,.74-.08,.28-.28,.44-.56,.5-.27,.05-.49-.06-.68-.25-.87-.87-1.74-1.73-2.6-2.61-.17-.17-.25-.16-.41,0-.87,.89-1.74,1.76-2.63,2.63-.42,.41-1.05,.26-1.2-.28-.09-.31,.04-.55,.25-.76,.88-.88,1.75-1.76,2.63-2.63,.16-.16,.24-.32,.23-.55-.01-.84,0-1.68,0-2.52Z"/><path class="cls-2" d="M7.81,14.61c.23,.59,.53,1.14,.95,1.62-.75,.44-1.51,.88-2.27,1.3-.17,.1-.22,.23-.27,.4-.32,1.23-.64,2.45-.97,3.68-.11,.41-.36,.61-.73,.6-.34,0-.59-.22-.67-.56-.04-.15,0-.29,.04-.43,.31-1.18,.62-2.35,.94-3.52,.06-.22,.01-.3-.21-.36-1.19-.3-2.37-.62-3.56-.94-.42-.11-.62-.39-.59-.77,.03-.34,.29-.59,.64-.63,.15-.02,.29,.04,.43,.07,1.16,.31,2.31,.61,3.46,.92,.2,.06,.36,.04,.53-.07,.75-.44,1.51-.87,2.26-1.31Z"/><path class="cls-2" d="M15.8,12.14c-.25-.58-.54-1.13-.95-1.61,.75-.44,1.5-.88,2.26-1.31,.16-.09,.25-.19,.29-.38,.32-1.23,.65-2.45,.98-3.68,.08-.3,.25-.51,.56-.57,.54-.1,.95,.36,.8,.92-.29,1.12-.59,2.23-.89,3.34-.14,.52-.14,.52,.37,.65,1.11,.29,2.23,.59,3.34,.89,.36,.1,.56,.33,.57,.66,.01,.31-.13,.55-.42,.68-.2,.09-.41,.06-.62,0-1.18-.32-2.37-.63-3.55-.95-.2-.06-.37-.05-.56,.07-.73,.44-1.47,.85-2.21,1.28Z"/><path class="cls-2" d="M8.75,10.53c-.41,.49-.72,1.03-.94,1.63-.76-.44-1.53-.88-2.28-1.34-.16-.1-.29-.06-.44-.02-1.21,.32-2.41,.65-3.62,.97-.57,.15-1.02-.18-.98-.71,.02-.31,.23-.54,.59-.64,1.17-.32,2.35-.64,3.53-.93,.27-.07,.29-.17,.23-.4-.33-1.19-.65-2.39-.96-3.59-.14-.54,.31-1,.85-.88,.33,.08,.47,.33,.55,.63,.31,1.19,.63,2.37,.94,3.56,.06,.22,.16,.36,.36,.47,.73,.41,1.46,.84,2.18,1.26Z"/><path class="cls-2" d="M12.75,9.31c-.62-.13-1.24-.08-1.86-.04,0-.83-.01-1.66,0-2.49,0-.21-.06-.35-.2-.5-.88-.87-1.75-1.75-2.63-2.63-.22-.22-.37-.46-.28-.79,.15-.54,.78-.71,1.2-.3,.75,.74,1.49,1.49,2.23,2.23,.2,.2,.41,.54,.61,.55,.2,0,.41-.34,.61-.54,.73-.73,1.46-1.46,2.18-2.18,.35-.35,.75-.37,1.06-.07,.3,.3,.29,.72-.05,1.06-.88,.89-1.76,1.77-2.65,2.65-.15,.14-.21,.29-.21,.5,0,.85,0,1.7,0,2.55Z"/><path class="cls-1" d="M1.45,17.98c.8,0,1.43,.66,1.42,1.46,0,.78-.66,1.42-1.43,1.42-.79,0-1.45-.66-1.44-1.45,0-.8,.65-1.44,1.45-1.43Z"/><path class="cls-1" d="M22.17,20.81c-.8,0-1.43-.64-1.43-1.45,0-.78,.64-1.42,1.42-1.43,.78,0,1.45,.66,1.45,1.44,0,.79-.65,1.44-1.45,1.44Z"/><path class="cls-1" d="M22.14,8.83c-.78,0-1.41-.65-1.41-1.43,0-.79,.65-1.45,1.44-1.45,.78,0,1.43,.67,1.43,1.46,0,.8-.65,1.43-1.46,1.42Z"/><path class="cls-1" d="M10.38,25.39c0-.8,.64-1.42,1.45-1.42,.79,0,1.41,.63,1.41,1.43,0,.8-.64,1.45-1.43,1.45-.79,0-1.43-.65-1.43-1.46Z"/><path class="cls-1" d="M1.46,5.99c.81,0,1.42,.63,1.42,1.45,0,.78-.64,1.42-1.42,1.42-.79,0-1.43-.64-1.43-1.45,0-.81,.62-1.42,1.44-1.42Z"/><path class="cls-1" d="M13.24,1.45c0,.78-.64,1.42-1.42,1.43-.8,0-1.45-.66-1.44-1.47C10.39,.62,11.02,0,11.81,0c.8,0,1.43,.64,1.42,1.45Z"/><path class="cls-2" d="M10.89,9.27s0,.02,0,.04h-.02s0-.03,.02-.04Z"/><path class="cls-2" d="M10.87,17.44h.02v.04s-.03-.02-.02-.04Z"/><path class="cls-4" d="M10.37,13.34c.01-.8,.66-1.43,1.45-1.42,.79,.01,1.43,.67,1.43,1.46,0,.81-.66,1.46-1.47,1.45-.81,0-1.43-.66-1.42-1.48Z"/></g><text class="cls-3" transform="translate(37.88 24.02)"><tspan x="0" y="0">CENTRO DE EXCELENCIA</tspan></text></g></g></svg>