<?xml version="1.0" encoding="UTF-8"?><svg id="Capa_2" xmlns="http://www.w3.org/2000/svg" viewBox="0 0 15.77 24.54"><g id="Capa_1-2"><path d="M13.78,22.31c0,.57,.03,1.16-.02,1.73-.01,.18-.23,.34-.35,.51-.13-.16-.35-.32-.36-.49-.05-.58-.02-1.16-.02-1.81H6.64c0,.61,.03,1.22-.02,1.81-.01,.17-.25,.32-.38,.48-.12-.17-.3-.32-.36-.51-.06-.19-.02-.42-.02-.64,0-1.27-.31-1.62-1.61-1.59-1.04,.02-2.07,.16-3.1,.31-.59,.08-.86-.04-.85-.68,.03-3.01-.31-2.39,2.32-2.12,.88,.09,1.8-.09,2.69-.17,.5-.05,.61-.41,.42-.8-.39-.79-.73-1.63-1.27-2.31-1.25-1.55-2.63-2.99-3.89-4.53-.35-.44-.67-1.13-.58-1.64,.09-.53,.61-1.12,1.1-1.4,.62-.35,1.33-.11,1.81,.47,.78,.94,1.53,1.9,2.47,3.07,.04-.56,.08-.86,.08-1.17,.01-2.33,.02-4.66,.02-6.98,0-1.86,.44-2.28,2.25-2.24C8.23,.37,8.71-.06,9.54,0c.9,.07,1.29,.57,1.53,1.95,1.99,.16,2.01,.18,2.4,2.42,.26,0,.52-.01,.79,0,.84,.05,1.46,.62,1.47,1.46,.02,2.57,.07,5.15-.03,7.72-.03,.82-.45,1.64-.75,2.44-.25,.66-.59,1.27-.88,1.92-.28,.63-.27,1.06,.51,1.43,.99,.47,.96,1.9,.04,2.53-.25,.17-.54,.28-.86,.44Zm1.24-12.53h-.02c0-1.22,.05-2.45-.03-3.67-.02-.34-.41-.87-.72-.94-.61-.13-.81,.39-.83,.94-.02,.55,.04,1.11-.04,1.65-.07,.44,.37,1.06-.39,1.3-.12-.42-.32-.83-.34-1.26-.05-1.28-.03-2.57-.03-3.86,0-.58-.04-1.19-.8-1.19-.78,0-.77,.65-.78,1.21-.01,.49-.02,.98-.02,1.47,0,1.04,0,2.08-.03,3.12,0,.17-.23,.33-.35,.5-.13-.17-.3-.31-.36-.5-.06-.19-.01-.42-.02-.64,0-2.08-.02-4.16-.03-6.25,0-.54-.26-.98-.8-.87-.3,.06-.56,.51-.75,.84-.11,.19-.04,.48-.04,.72,0,1.99,0,3.98-.03,5.97,0,.24-.21,.48-.32,.72-.14-.25-.39-.49-.39-.74-.04-1.47,0-2.94-.04-4.41-.02-.62,.26-1.54-.79-1.53-1.05,0-.75,.95-.77,1.56-.06,2.51-.04,5.02-.12,7.53-.01,.37-.3,.96-.59,1.05-.31,.09-.86-.2-1.12-.48-.74-.81-1.35-1.75-2.11-2.54-.23-.24-.98-.37-1.16-.2-.27,.26-.33,.82-.34,1.25,0,.22,.29,.45,.47,.66,1.18,1.36,2.36,2.74,3.57,4.08,.84,.93,1.44,1.96,1.69,3.2,.04,.22,.42,.52,.65,.53,1.75,.04,3.49,.04,5.24,0,.23,0,.57-.28,.67-.51,.4-.89,.78-1.79,1.07-2.72,.33-1.07,.63-2.16,.79-3.26,.13-.9,.03-1.83,.03-2.75Zm-4.41,10.05c-1.65,0-3.23-.04-4.8,.04-.25,.01-.63,.47-.68,.77-.03,.21,.4,.69,.63,.7,1.6,.06,3.2,.03,4.85,.03v-1.53Zm1.98,.01h-1.1v1.53h1.1v-1.53Zm-11.45,1.48c.6-.24,1.55,.24,1.51-.74-.04-.9-.93-.5-1.51-.64v1.37Zm12.3,.09c.66,0,1.17-.14,1.14-.82-.03-.65-.47-.87-1.14-.72v1.54Z"/></g></svg>