<?xml version="1.0" encoding="UTF-8"?><svg id="Capa_2" xmlns="http://www.w3.org/2000/svg" viewBox="0 0 25.88 25.88"><defs><style>.cls-1{fill:#fff;}</style></defs><g id="Capa_1-2"><g><path d="M12.92,25.88c-2.96,0-5.92,0-8.88,0-1.99,0-3.6-1.34-3.97-3.28-.05-.26-.07-.52-.07-.79C0,15.89,0,9.96,0,4.03,0,1.77,1.77,0,4.03,0,9.96,0,15.9,0,21.84,0c2.27,0,4.04,1.75,4.04,4.01,0,5.96,0,11.91,0,17.87,0,1.96-1.35,3.56-3.27,3.93-.3,.06-.62,.07-.93,.07-2.92,0-5.84,0-8.76,0Zm0-1.3c2.97,0,5.94,0,8.9,0,1.58,0,2.76-1.19,2.76-2.77,0-5.9,0-11.8,0-17.7,0-1.64-1.17-2.81-2.8-2.81-5.89,0-11.79,0-17.68,0-1.64,0-2.8,1.17-2.8,2.81,0,5.91,0,11.82,0,17.73,0,.19,.02,.38,.05,.56,.26,1.29,1.35,2.19,2.69,2.19,2.96,0,5.92,0,8.88,0Z"/><path class="cls-1" d="M12.92,24.58c-2.96,0-5.92,0-8.88,0-1.34,0-2.43-.9-2.69-2.19-.04-.18-.05-.37-.05-.56,0-5.91,0-11.82,0-17.73,0-1.64,1.16-2.81,2.8-2.81,5.89,0,11.79,0,17.68,0,1.63,0,2.8,1.17,2.8,2.81,0,5.9,0,11.8,0,17.7,0,1.58-1.18,2.77-2.76,2.77-2.97,0-5.94,0-8.9,0Zm.02-13.83c1.42,0,2.84,0,4.27,0,.34,0,.58-.12,.76-.41,.69-1.08,1.39-2.16,2.08-3.24,.22-.34,.2-.61-.06-.91-1.71-2.01-3.89-3.14-6.52-3.27-3.01-.16-5.53,.95-7.52,3.22-.32,.36-.33,.61-.07,1.01,.69,1.07,1.38,2.13,2.06,3.2,.17,.27,.4,.39,.72,.39,1.43,0,2.86,0,4.29,0Z"/><path d="M12.94,10.76c-1.43,0-2.86,0-4.29,0-.32,0-.55-.12-.72-.39-.68-1.07-1.37-2.13-2.06-3.2-.26-.4-.25-.65,.07-1.01,1.99-2.27,4.51-3.38,7.52-3.22,2.63,.14,4.81,1.27,6.52,3.27,.26,.31,.28,.57,.06,.91-.69,1.08-1.39,2.15-2.08,3.24-.18,.29-.42,.41-.76,.41-1.42,0-2.84,0-4.27,0Zm1.19-1.32c.06,.01,.08,.02,.1,.02,.88,0,1.76,0,2.64,0,.07,0,.17-.08,.21-.15,.4-.61,.79-1.22,1.18-1.83,.15-.24,.3-.47,.46-.73-.23-.22-.44-.43-.66-.62-.17-.15-.35-.28-.54-.43l-.09,.11c-.19,.24-.46,.32-.72,.23-.28-.09-.44-.32-.45-.63,0-.09,0-.18,0-.27,.02-.14-.05-.22-.18-.26-.51-.16-1.02-.34-1.54-.48-.3-.08-.62-.1-.93-.15-.11,.67-.26,.89-.65,.89-.14,0-.29-.05-.41-.12-.27-.17-.29-.46-.28-.75-.08,0-.13,0-.17,0-.69,.08-1.36,.25-2.02,.48-.35,.12-.53,.26-.5,.68,.04,.5-.53,.81-.95,.55-.11-.07-.19-.17-.32-.29l-1.17,1.04c.03,.07,.03,.09,.04,.1,.54,.85,1.08,1.69,1.64,2.53,.04,.06,.16,.1,.24,.1,1.11,0,2.22,0,3.33,0,.14,0,.21-.04,.28-.16,.57-.92,1.14-1.84,1.71-2.76,.22-.36,.6-.46,.93-.26,.32,.2,.4,.59,.18,.95-.17,.28-.35,.56-.53,.85-.28,.45-.55,.89-.84,1.36Z"/></g></g></svg>