<?xml version="1.0" encoding="UTF-8"?><svg id="Capa_2" xmlns="http://www.w3.org/2000/svg" viewBox="0 0 16.35 24.66"><defs><style>.cls-1{fill:#fff;}</style></defs><g id="Capa_1-2"><g><path d="M.11,11.57l-.07,.09H.01c.07-.25-.02-.48-.01-.72,.01-1.08,.02-2.16,0-3.24-.02-1.19,.65-1.99,1.64-2.38,.36-.14,.74-.2,1.12-.3,.04-.01,.09-.02,.15-.03-.7-.66-1.03-1.44-.96-2.38,.04-.52,.21-.99,.52-1.43l.18,.16,.04-.03s-.06-.09-.1-.14c-.05-.06-.07-.11,.02-.15l.2,.18,.04-.04s-.08-.09-.11-.15c-.02-.03-.02-.08-.02-.12,.04,0,.08,.01,.11,.03,.05,.03,.09,.08,.13,.12l.04-.03-.18-.25,.22-.17,.03,.03s-.06,.07-.07,.11c0,.04,0,.12,.01,.13,.04,.02,.1,.02,.14,0,.05-.03,.08-.08,.13-.14l-.17-.2c.06-.1,.11-.04,.16,.01,.06,.07,.13,.11,.21,.02l-.2-.13v-.05l.34-.11,.02,.04-.11,.09v.03s.1,0,.12-.03c.04-.05,.06-.11,.09-.19,.06,.02,.14,0,.22-.09,.04-.05,.14-.07,.21-.08,1.96-.41,3.7,1.27,3.37,3.25-.1,.62-.39,1.15-.85,1.59-.02,.02-.04,.04-.07,.08,.23,.04,.44,.07,.64,.12,.64,.15,1.21,.42,1.66,.92,.39,.43,.59,.94,.59,1.52,0,2.25,0,4.49,0,6.74,0,.6-.33,1.03-.79,1.36-.29,.21-.62,.34-.98,.38-.12,.01-.12,.07-.13,.17-.03,1.42-.06,2.85-.09,4.27-.02,.91-.04,1.82-.06,2.74-.02,.85-.63,1.45-1.48,1.45-.63,0-1.27,0-1.9,0-.09,0-.18,.02-.19-.11,0-.01-.04-.04-.05-.03-.02,0-.03,.03-.05,.05-.03,.03-.06,.08-.09,.09-.68,.08-1.31-.3-1.55-.93-.06-.17-.09-.35-.1-.53-.04-1.66-.08-3.32-.11-4.98-.01-.67-.04-1.34-.05-2.01,0-.12-.04-.16-.16-.18-.74-.13-1.31-.49-1.63-1.19-.08-.18-.12-.39-.12-.58-.01-.79,0-1.59,0-2.38,0-.05,.05-.11,.07-.16,.02-.04,.05-.08,.07-.12l-.05-.02Zm1.8,3.78c0-.1,0-.15,0-.21,0-1.73,0-3.46,0-5.19,0-.48,0-.96,0-1.44,0-.2,.15-.35,.34-.35,.19,0,.34,.13,.36,.34,0,.08,0,.16,0,.23,.02,2.94,.02,5.89,.05,8.83,.02,1.88,.08,3.77,.13,5.65,.01,.43,.32,.73,.75,.74,.23,0,.47,0,.7,0q.2,0,.2-.19c0-2.72,0-5.44,0-8.16,0-.4,0-.79,0-1.19,0-.22,.14-.36,.34-.36,.21,0,.35,.15,.35,.37,0,.07,0,.14,0,.21,0,2.77,0,5.55,0,8.32,0,.29,0,.58,0,.88,0,.1,.03,.14,.13,.13,.25,0,.49,0,.74,0,.46,0,.77-.31,.78-.76,.06-2.4,.13-4.8,.16-7.2,.03-2.44,0-4.88,.01-7.32,0-.06,0-.12,0-.18,.01-.19,.16-.33,.35-.33,.19,0,.33,.14,.34,.34,0,.04,0,.07,0,.11,0,2.18,0,4.36,0,6.54,0,.06,0,.11,.01,.18,.31-.05,.57-.16,.79-.35,.26-.22,.4-.48,.39-.83,0-2.18,0-4.36,0-6.54,0-.56-.22-1.02-.68-1.35-.54-.4-1.17-.56-1.83-.57-1.05-.02-2.1-.02-3.15,0-.51,0-1,.13-1.46,.36-.66,.34-1.03,.86-1.03,1.61,0,2.17,0,4.34,0,6.5,0,.08,0,.16,.02,.23,.09,.41,.38,.65,.73,.81,.13,.06,.28,.09,.45,.15ZM6.91,2.84c0-1.18-.96-2.14-2.13-2.14-1.17,0-2.12,.96-2.12,2.13,0,1.16,.96,2.13,2.11,2.13,1.18,0,2.14-.96,2.14-2.13ZM3.44,24.56s.07-.06,.06-.08c0-.09,.02-.15,.12-.16,.02,0,.05-.05,.04-.05-.01-.02-.04-.05-.06-.05-.15-.02-.28,.1-.16,.35Z"/><path d="M13.76,17.96c.73,0,1.46,0,2.19,0,.16,0,.3,.05,.37,.2,.1,.2-.02,.44-.24,.49-.05,.01-.11,.01-.16,.01-1.44,0-2.89,0-4.33,0-.23,0-.37-.09-.41-.27-.06-.24,.11-.44,.37-.44,.74,0,1.48,0,2.22,0Z"/><path d="M13.76,23.95c.72,0,1.44,0,2.16,0,.04,0,.07,0,.11,0,.19,.02,.33,.17,.32,.36,0,.18-.14,.33-.33,.34-.15,0-.29,0-.44,0-.78,0-1.57,0-2.35,0-.57,0-1.14,0-1.71,0-.26,0-.42-.21-.35-.45,.04-.16,.17-.25,.38-.25,.73,0,1.47,0,2.2,0Z"/><path d="M13.77,.7c-.74,0-1.48,0-2.22,0-.22,0-.36-.11-.39-.31-.02-.21,.12-.39,.32-.39,.34,0,.68,0,1.02,0,.16,0,.32-.01,.48-.01,.98,0,1.97,0,2.95,0,.22,0,.36,.1,.4,.28,.05,.23-.12,.42-.38,.42-.51,0-1.01,0-1.52,0-.23,0-.46,0-.68,0Z"/><path d="M13.77,12.68c-.74,0-1.48,0-2.22,0-.25,0-.41-.17-.38-.39,.02-.15,.12-.26,.26-.3,.05-.01,.11-.01,.16-.01,1.45,0,2.89,0,4.34,0,.23,0,.38,.1,.41,.28,.05,.23-.11,.42-.36,.43-.25,0-.49,0-.74,0-.49,0-.99,0-1.48,0Z"/><path d="M15.1,6.61l.11-.1c-.11-.13-.22-.25-.32-.38-.02-.03-.03-.08-.04-.12,.04,0,.08-.02,.11-.03,.18-.04,.29,.06,.39,.19,.04,.04,.06,.16,.15,.09,.02-.01-.03-.11-.05-.17-.01-.03-.03-.06-.05-.09,.01-.01,.02-.02,.03-.02,.2,.06,.39,0,.59,0,.2,0,.34,.16,.34,.35,0,.19-.14,.34-.34,.34-.31,0-.63,0-.94,0-.04,0-.08,0-.13,0,0-.02-.02-.04-.03-.06-.06-.18-.17-.23-.35-.15-.07,.03-.16,.13-.22,.02-.06-.11,.06-.15,.13-.2,.03-.02,.05-.06,.07-.09-.04,0-.09-.02-.13,0-.22,.1-.27,.25-.14,.5-.03,0-.05,0-.08,0-.88,0-1.76,0-2.64,0-.24,0-.39-.15-.39-.36,0-.17,.12-.3,.29-.33,.06,0,.12,0,.18,0,.94,0,1.87,0,2.81,0,.1,0,.17,.02,.24,.1,.13,.17,.28,.34,.43,.52Z"/><path d="M12.63,9.69c-.37,0-.74,0-1.11,0-.18,0-.31-.1-.35-.26-.04-.16,.02-.32,.16-.4,.06-.03,.14-.05,.21-.05,.73,0,1.45,0,2.18,0,.24,0,.39,.16,.38,.37-.01,.2-.16,.33-.38,.33-.36,0-.73,0-1.09,0Z"/><path d="M14.14,15.34c-.06,.09-.11,.19-.19,.27-.05,.06-.13,.08-.2,0-.06-.06-.13-.05-.21,0-.05,.03-.12,.06-.18,.06-.6,0-1.19,0-1.79,0-.25,0-.4-.13-.4-.35,0-.22,.15-.35,.4-.35,.72,0,1.44,0,2.16,0,.23,0,.39,.15,.42,.37Z"/><path d="M12.63,3.7c-.37,0-.75,0-1.12,0-.18,0-.31-.12-.34-.28-.03-.17,.05-.33,.21-.39,.05-.02,.12-.03,.17-.03,.72,0,1.44,0,2.16,0,.24,0,.39,.14,.4,.34,0,.21-.15,.36-.4,.36-.36,0-.72,0-1.08,0Z"/><path d="M12.64,21.66c-.36,0-.72,0-1.08,0-.24,0-.39-.13-.39-.34,0-.22,.15-.35,.4-.35,.72,0,1.44,0,2.16,0,.23,0,.39,.15,.39,.35,0,.21-.16,.35-.39,.35-.36,0-.72,0-1.08,0Z"/><path d="M14.8,6.68h-.29v-.03c.06-.02,.13-.05,.2-.07,.02,0,.04,.05,.09,.1Z"/><path class="cls-1" d="M3.44,24.56c-.12-.25,.01-.37,.16-.35,.02,0,.05,.03,.06,.05,0,0-.02,.05-.04,.05-.1,.01-.13,.07-.12,.16,0,.02-.04,.05-.06,.08Z"/></g></g></svg>