<?xml version="1.0" encoding="UTF-8"?><svg id="Capa_2" xmlns="http://www.w3.org/2000/svg" viewBox="0 0 1155 1297.51"><g id="Capa_2-2"><g><path d="M0,640.51c2.4-12.89,6.41-25.14,14.05-36,13.41-19.08,31.53-30.87,54.49-34.79,4.65-.79,5.58-2.66,5.36-6.85-1.22-23.64-1.63-47.3-.94-70.95,2.06-71.47,11.44-141.74,36.12-209.3,18.42-50.41,44.37-96.48,80.47-136.5,37.39-41.46,82.07-72.83,132.85-95.74,52.57-23.71,107.9-37.09,164.91-44.26,37.08-4.66,74.3-7.22,111.65-5.67,74.51,3.1,147.45,14.62,217.05,42.78,55.12,22.3,103.96,54.05,144.72,97.6,33.74,36.05,59.15,77.48,77.96,123.03,18.81,45.56,30.13,93.06,36.69,141.81,6.08,45.19,7.59,90.58,6.67,136.09-.13,6.49-.63,12.97-.82,19.47-.21,7.29-.12,7.21,6.77,8.69,31.86,6.85,53.01,25.82,63.6,56.56,1.46,4.23,2.29,8.68,3.41,13.02v23c-.21,.63-.53,1.24-.63,1.89-6.45,40.62-43.83,73.11-89.01,69.06-3.89-.35-4.45,1.67-5,4.49-2.83,14.55-5.39,29.16-8.62,43.62-17.73,79.55-37.88,158.46-63.74,235.81-16.94,50.68-37.62,99.74-66.29,145.12-17.92,28.36-38.93,54.15-64.82,75.54-33.31,27.51-71.73,44.54-114.03,52.82-13.54,2.65-27.24,4.46-40.86,6.66h-236c-.8-.22-1.59-.57-2.4-.63-18.97-1.52-37.64-4.96-56.14-9.23-32.61-7.53-63.13-20.08-90.95-38.85-41.38-27.91-71.72-65.62-96.37-108.44-25.66-44.58-44.77-92-59.54-141.07-25.94-86.15-49.01-173.07-65.92-261.52-.63-3.3-1.7-4.53-5.53-4.28-28.31,1.84-51.91-7.97-70.43-29.55-10.26-11.95-15.69-26.16-18.72-41.42v-22Zm1062.96-126.34c-.18-11.99-.38-23.97-.9-35.96-1.24-28.98-3.76-57.81-8.31-86.46-8.92-56.17-24.79-110.11-51.95-160.37-25.45-47.11-59.13-87.31-102.04-119.44-28.41-21.27-59.4-38.14-92.37-51.31-67.36-26.91-137.86-37.9-209.85-40.75-41.71-1.65-83.21,1.66-124.48,7.8-59.08,8.8-115.85,24.93-168.79,53.25-46.95,25.12-86.87,58.59-119.18,100.92-30.37,39.79-51.53,84.28-66.04,132.04-11.95,39.34-19.28,79.55-23.09,120.47-3.13,33.54-4.54,67.13-3.65,100.8,.36,13.65,1.33,27.27,1.8,40.92,.28,8.14-3.34,11.75-11.29,11.69-3.35-.03-6.64,.34-9.94,.84-34.04,5.14-57.79,36.43-53.47,70.51,4.25,33.56,34.59,57.87,68.4,55.13,8.41-.68,14.22-3.77,16.18-12.47,.66-2.91,1.88-5.69,2.7-8.57,8.56-30.24,12.55-61.29,16.08-92.41,.83-7.29,4.22-11.35,10.15-11.36,5.28,0,9.02,3.77,9.51,10.73,1.59,22.66,5.52,44.93,10.68,67.01,12.38,53.04,30.32,104.24,51.09,154.51,8.46,20.47,16.49,41.15,29.81,59.2,11.03,14.95,24.55,26.78,42.03,33.45,18.38,7.02,37.44,7.17,56.65,4.4,23.57-3.4,45.91-11.16,68.12-19.34,25.46-9.38,50.25-20.68,76.76-27.06,2.33-.56,2.89-1.69,2.59-3.9-.61-4.47-.55-8.98,0-13.46,4.34-35.79,12.39-70.84,21.25-105.71,8.12-31.98,17.12-63.73,30.04-94.17,5.19-12.22,10.58-24.46,20.3-34.12,8.36-8.31,18.21-9.17,27.3-1.91,3.81,3.04,6.76,6.81,9.4,10.92,10.72,16.7,17.54,35.13,23.89,53.74,14.53,42.64,25.29,86.3,33.93,130.47,3.48,17.77,7.63,35.54,6.65,53.88-.15,2.85,1.66,3.29,3.58,3.87,6.37,1.93,12.82,3.65,19.13,5.78,31.56,10.65,62.28,23.74,94.29,33.11,26.6,7.78,53.42,14.38,81.54,11.42,14.78-1.55,28.62-5.75,41.15-14.08,16.66-11.09,28.14-26.46,36.08-44.39,17.62-39.81,31.6-81,44.84-122.41,14.92-46.67,28.1-93.81,36.05-142.27,1.03-6.27,4.68-9.68,9.63-9.65,5.45,.03,9.07,3.56,9.95,9.92,2.72,19.8,6.03,39.51,10.25,59.05,3.51,16.28,6.99,32.57,14,47.85,1.9,4.14,4.64,6.45,9.31,7.19,15.28,2.41,29.37-.4,42.73-8.19,29.02-16.91,39.58-56.9,22.21-85.61-12.66-20.92-31.37-31.53-55.86-31.87-7.14-.1-10.8-3.69-10.91-10.75-.03-1.66,.03-3.34,.14-5,1.29-19.28,2.22-38.57,1.97-57.9ZM133.44,668.86l-.86,.05c-1.42,6.27-2.66,12.59-4.3,18.81-3.43,13.04-6.42,26.28-14.98,37.26-1.34,1.72-.59,3.48-.26,5.26,4.63,25.57,9.86,51.01,15.9,76.28,9.5,39.7,19.97,79.13,30.41,118.59,14.81,55.96,31.67,111.21,56.11,163.85,18.62,40.1,40.99,77.7,71.88,109.87,32.02,33.35,70.49,55.35,114.85,67.5,39.67,10.87,80.37,13.99,121.2,14.71,45.81,.82,91.64,1.2,137.45-.6,25.67-1.01,51.18-3.27,76.4-8.23,48.7-9.58,91.22-30.79,126.12-66.61,22.63-23.23,40.79-49.63,56.36-77.91,21.21-38.52,37.36-79.22,51.41-120.79,10.09-29.84,18.7-60.12,27.01-90.5,16.92-61.87,32.84-123.97,44.1-187.18,.33-1.85,.63-3.59-.6-5.25-9.34-12.68-12.88-27.67-16.8-42.48-2.28-8.62-4.15-17.34-6.37-26.74-.56,1.31-.9,1.88-1.05,2.49-4.47,18.46-9.36,36.8-14.73,55.02-15.43,52.28-32.99,103.84-53.83,154.21-11.68,28.21-29.93,51.15-58.08,64.73-25.28,12.2-52.02,12.89-79.2,9.04-28.54-4.04-55.74-12.97-82.76-22.6-25.57-9.12-50.7-19.47-76.84-26.96-4.03-1.15-6.38-.61-8.61,3.17-4.63,7.85-11.13,14.07-18.56,19.32-23.38,16.52-49.53,20.75-77.17,16.19-23.35-3.85-43.24-14.42-57.17-34.23-2.82-4.01-5.48-4.86-10-3.65-15.17,4.05-29.83,9.51-44.44,15.14-25.49,9.82-50.85,20.03-77.44,26.66-23.98,5.98-48.14,9.17-72.69,3.97-33.8-7.16-57.74-27.64-75.31-56.47-11.68-19.16-19.55-40.09-27.99-60.76-17.66-43.23-32.85-87.3-44.52-132.54-1.6-6.19-3.1-12.42-4.64-18.62Zm438.81,242.83c9.92,.27,24.48-3.57,37.58-11.86,15.6-9.88,25.64-23.33,23.71-42.95-1.48-15.08-4.28-29.99-7.37-44.81-9.39-45-20.32-89.59-35.99-132.89-5.04-13.94-10.16-27.85-18.82-40.1-4.33-6.13-5.72-6.26-9.94,.03-5.2,7.75-9.58,15.99-12.91,24.75-23.53,61.89-39.05,125.83-48.9,191.2-1.95,12.93,1.7,24.44,10.69,34.05,15.23,16.28,34.62,22.24,61.95,22.58Z"/><path d="M361.88,475.25c25.27,.11,46.51,1.53,67.63,4.63,9.14,1.34,11.92,5.35,10.47,14.53-2.74,17.43-5.57,34.84-8.36,52.26-.47,2.96-.84,5.94-1.38,8.88-1.27,6.8-5.69,9.9-12.59,8.91-17.16-2.47-34.44-3.13-51.75-3.8-40.05-1.54-76.71,9.03-110.77,29.63-1.71,1.03-3.45,2.06-5.3,2.77-4.81,1.85-9.51,.39-12.13-4.03-11.04-18.62-22.05-37.27-32.88-56.01-3.33-5.77-1.96-11.14,3.46-14.22,24.65-14.05,49.88-26.87,77.39-34.43,17.23-4.74,34.88-7.05,52.7-8.17,9.15-.57,18.28-1.08,23.52-.95Zm2.43,19.46c-12-.11-23.93,.98-35.89,1.81-35.9,2.49-68.13,15.97-99.33,32.67-2.25,1.2-2.73,2.41-1.37,4.7,6.8,11.45,13.51,22.96,20.16,34.5,1.29,2.23,2.54,2.44,4.81,1.25,7.37-3.86,14.82-7.6,22.34-11.18,19.77-9.43,40.68-14.46,62.49-16.18,23.82-1.88,47.57-.94,71.29,1.46,2.92,.3,3.82-.62,4.22-3.28,1.92-12.84,3.89-25.67,6.01-38.47,.5-3.02-.25-4.07-3.4-4.4-17.07-1.8-34.17-2.68-51.32-2.89Z"/><path d="M771.1,475.21c33.77,.31,68.69,3.97,101.86,17.92,16.6,6.98,32.73,14.89,48.44,23.65,9.63,5.37,10.66,9.57,5.16,18.97-9.5,16.23-19,32.47-28.5,48.7-6.26,10.71-9.54,11.47-20.39,5.71-21.93-11.63-43.84-23.37-68.97-26.8-19.35-2.65-38.77-3.26-58.26-2.11-12.13,.72-24.22,1.68-36.27,3.29-6.07,.81-10.34-2.61-11.33-8.7-3.34-20.53-6.64-41.06-9.83-61.61-1.4-9,1.39-12.86,10.2-14.2,21.92-3.33,44-4.66,67.9-4.82Zm-3.09,66.04c23.01,.34,45.92,1.49,68.07,8.65,15.11,4.89,29.34,11.78,43.29,19.25,3.03,1.62,4.55,1.26,6.26-1.75,6.25-11,12.68-21.91,19.19-32.76,1.73-2.88,1.03-4.41-1.76-5.86-17.31-8.98-34.78-17.61-53.42-23.52-19.48-6.17-39.56-8.73-59.92-9.91-24.35-1.42-48.57-.13-72.77,2.35-2.94,.3-3.48,1.59-3.03,4.31,2.09,12.64,4.07,25.3,5.95,37.98,.45,3.03,1.35,4.1,4.79,3.76,14.41-1.42,28.84-2.7,43.35-2.51Z"/><path d="M385.99,648.49c-.33,8.15,.39,16.31-.7,24.45-2.74,20.36-21.26,35.85-41.61,34.66-21.28-1.25-37.81-18.45-37.94-39.6-.08-12.99-.08-25.99,0-38.98,.13-20.95,16.53-38.27,37.4-39.61,20.87-1.35,39.47,14.2,42.2,35.13,1.04,7.98,.3,15.97,.65,23.95Zm-40.26-39.68c-11.07-.07-20.37,8.89-20.54,20.18-.19,12.97-.09,25.94,0,38.91,.01,1.96,.32,4,.91,5.87,3.08,9.79,13.35,16.04,22.97,14.11,11.1-2.23,18.01-11.61,17.36-23.37-.6-10.79-.62-21.6,.04-32.39,.76-12.54-8.73-23.23-20.73-23.31Z"/><path d="M827.25,648.57c0,7,.15,14-.03,20.99-.49,19.98-17.79,37.25-37.97,38.04-20.75,.82-39.55-14.64-41.49-34.74-1.53-15.93-1.47-31.96-.07-47.89,1.52-17.27,14.65-31.33,31.27-34.6,17.8-3.51,35.07,4.51,43.59,20.06,3.12,5.7,4.67,11.71,4.7,18.15,.03,6.66,0,13.33,0,19.99h-.02Zm-19.4,.3h-.02c0-6.66-.02-13.33,.01-19.99,.02-3.44-.93-6.57-2.68-9.49-4.84-8.1-13.95-12.1-22.59-9.92-9.57,2.41-15.7,9.87-15.97,20.42-.33,12.81-.69,25.65,.33,38.46,.94,11.83,9.57,20.09,20.85,19.85,11.21-.24,19.92-9.46,20.06-21.33,.07-6,.01-12,.01-17.99Z"/><path d="M578.89,944.26c42.9,.41,87.75,3.02,132.39,8.82,8.09,1.05,16.17,2.14,24.25,3.24,6.83,.93,10.11,4.48,9.68,11.52-.95,15.46-5.06,30.25-11.1,44.4-22.79,53.41-64.12,82.62-120.71,91.56-29.95,4.73-59.8,4.03-89.31-3.02-36.12-8.62-66.18-26.91-87.93-57.53-15.53-21.87-24.81-46.3-28.22-72.9-1.17-9.15,2-12.84,11.08-14.19,41.38-6.15,82.98-9.8,124.8-11.1,10.99-.34,21.98-.52,35.07-.79Zm-1.57,70.33c-43.15,0-86.29,0-129.44,0-6.06,0-6.34,.47-3.38,5.72,16.21,28.79,40.41,47.88,71.63,57.98,32.36,10.47,65.47,11.46,98.74,5.55,40.41-7.18,72.73-26.82,93.71-63.09,3.31-5.73,3.08-6.18-3.32-6.18-42.65,0-85.29,0-127.94,0Zm-1.33-19.39c39.99,0,79.98,.09,119.98-.05,13.47-.05,10.85,2.59,13.93-11.54,2.35-10.78,2.22-10.8-8.48-12.13-41.03-5.08-82.24-7.4-123.56-7.65-34.83-.2-69.56,2.07-104.23,5.09-9.12,.8-18.2,1.93-27.29,3-6.25,.74-6.52,1.19-5.06,7.14,.84,3.4,1.99,6.74,2.48,10.19,.67,4.76,3.04,6.07,7.77,6.05,41.49-.18,82.98-.11,124.48-.11Z"/></g></g></svg>